<svg width="48" height="48" viewBox="0 0 48 48" fill="none" xmlns="http://www.w3.org/2000/svg">
<path fill-rule="evenodd" clip-rule="evenodd" d="M48.0001 24.5456C48.0001 22.8438 47.8442 21.2074 47.5548 19.6365H24.4898V28.9202H37.6698C37.1021 31.9202 35.3767 34.462 32.783 36.1638V42.1856H40.6977C45.3285 38.0074 48.0001 31.8547 48.0001 24.5456Z" fill="#4285F4"/>
<path fill-rule="evenodd" clip-rule="evenodd" d="M24.4899 48C31.1021 48 36.6457 45.8511 40.6977 42.1856L32.783 36.1638C30.59 37.6038 27.7849 38.4545 24.4899 38.4545C18.1114 38.4545 12.7125 34.2327 10.7867 28.56H2.60484V34.7782C6.63454 42.6218 14.9166 48 24.4899 48Z" fill="#34A853"/>
<path fill-rule="evenodd" clip-rule="evenodd" d="M10.7867 28.56C10.2969 27.12 10.0186 25.582 10.0186 24.0001C10.0186 22.4183 10.2969 20.8801 10.7867 19.4401V13.2219H2.60483C0.946199 16.462 0 20.1274 0 24.0001C0 27.8729 0.94621 31.5382 2.60484 34.7782L10.7867 28.56Z" fill="#FBBC05"/>
<path fill-rule="evenodd" clip-rule="evenodd" d="M24.4899 9.54546C28.0854 9.54546 31.3136 10.7564 33.8517 13.1346L40.8758 6.25091C36.6346 2.37818 31.091 0 24.4899 0C14.9166 0 6.63452 5.37831 2.60483 13.2219L10.7867 19.4401C12.7125 13.7674 18.1114 9.54546 24.4899 9.54546Z" fill="#EA4335"/>
</svg>
